REM DIRINDEX 1\2\6,1\2\7,1\2\8,1\3\9,1\3\10,1\3\11,1\4\12,1\4\13,1\4\14,1\5\15,1\5\16,1\5\17,1\5\18
REM DIRNAME folder01,folder02,folder03,folder04,folder05,folder06,folder07,folder08,folder09,folder10,folder11,folder12,folder13,folder14,folder15,folder16,folder17,folder18
TITLE ""
FILE "2Q_t_1144-1161.mp3" MP3
  TRACK 01 AUDIO
    TITLE "13:cjc019_4351"
    INDEX 01 00:00:00
  TRACK 02 AUDIO
    TITLE "0:"
    INDEX 01 00:01:22
  TRACK 03 AUDIO
    TITLE "14:cjc019_4352"
    INDEX 01 00:02:02
  TRACK 04 AUDIO
    TITLE "0:"
    INDEX 01 00:03:51
  TRACK 05 AUDIO
    TITLE "13:cjc019_4353"
    INDEX 01 00:04:31
  TRACK 06 AUDIO
    TITLE "0:"
    INDEX 01 00:05:38
  TRACK 07 AUDIO
    TITLE "14:cjc019_4354"
    INDEX 01 00:06:16
  TRACK 08 AUDIO
    TITLE "0:"
    INDEX 01 00:08:50
  TRACK 09 AUDIO
    TITLE "13:cjc019_4355"
    INDEX 01 00:09:28
  TRACK 10 AUDIO
    TITLE "0:"
    INDEX 01 00:10:57
  TRACK 11 AUDIO
    TITLE "14:cjc019_4356"
    INDEX 01 00:11:40
  TRACK 12 AUDIO
    TITLE "0:"
    INDEX 01 00:13:67
  TRACK 13 AUDIO
    TITLE "13:cjc019_4357"
    INDEX 01 00:14:51
  TRACK 14 AUDIO
    TITLE "0:"
    INDEX 01 00:16:12
  TRACK 15 AUDIO
    TITLE "14:cjc019_4358"
    INDEX 01 00:16:71
  TRACK 16 AUDIO
    TITLE "0:"
    INDEX 01 00:18:33
  TRACK 17 AUDIO
    TITLE "13:cjc019_4359"
    INDEX 01 00:19:15
  TRACK 18 AUDIO
    TITLE "0:"
    INDEX 01 00:20:28
  TRACK 19 AUDIO
    TITLE "14:cjc019_4360"
    INDEX 01 00:21:11
  TRACK 20 AUDIO
    TITLE "0:"
    INDEX 01 00:23:34
  TRACK 21 AUDIO
    TITLE "13:cjc019_4361"
    INDEX 01 00:24:16
  TRACK 22 AUDIO
    TITLE "0:"
    INDEX 01 00:25:27
  TRACK 23 AUDIO
    TITLE "14:cjc019_4362"
    INDEX 01 00:26:11
  TRACK 24 AUDIO
    TITLE "0:"
    INDEX 01 00:28:49
  TRACK 25 AUDIO
    TITLE "13:cjc019_4363"
    INDEX 01 00:29:27
  TRACK 26 AUDIO
    TITLE "0:"
    INDEX 01 00:30:32
  TRACK 27 AUDIO
    TITLE "14:cjc019_4364"
    INDEX 01 00:31:10
  TRACK 28 AUDIO
    TITLE "0:"
    INDEX 01 00:32:54
  TRACK 29 AUDIO
    TITLE "13:cjc019_4365"
    INDEX 01 00:33:30
  TRACK 30 AUDIO
    TITLE "0:"
    INDEX 01 00:34:38
  TRACK 31 AUDIO
    TITLE "14:cjc019_4366"
    INDEX 01 00:35:14
  TRACK 32 AUDIO
    TITLE "0:"
    INDEX 01 00:37:38
  TRACK 33 AUDIO
    TITLE "13:cjc019_4367"
    INDEX 01 00:38:20
  TRACK 34 AUDIO
    TITLE "0:"
    INDEX 01 00:39:47
  TRACK 35 AUDIO
    TITLE "14:cjc019_4368"
    INDEX 01 00:40:23
  TRACK 36 AUDIO
    TITLE "0:"
    INDEX 01 00:41:67
  TRACK 37 AUDIO
    TITLE "13:cjc019_4369"
    INDEX 01 00:42:51
  TRACK 38 AUDIO
    TITLE "0:"
    INDEX 01 00:43:58
  TRACK 39 AUDIO
    TITLE "14:cjc019_4370"
    INDEX 01 00:44:36
  TRACK 40 AUDIO
    TITLE "0:"
    INDEX 01 00:47:11
  TRACK 41 AUDIO
    TITLE "13:cjc019_4371"
    INDEX 01 00:47:62
  TRACK 42 AUDIO
    TITLE "0:"
    INDEX 01 00:49:06
  TRACK 43 AUDIO
    TITLE "14:cjc019_4372"
    INDEX 01 00:49:57
  TRACK 44 AUDIO
    TITLE "0:"
    INDEX 01 00:53:66
  TRACK 45 AUDIO
    TITLE "13:cjc019_4373"
    INDEX 01 00:54:46
  TRACK 46 AUDIO
    TITLE "0:"
    INDEX 01 00:55:65
  TRACK 47 AUDIO
    TITLE "14:cjc019_4374"
    INDEX 01 00:56:47
  TRACK 48 AUDIO
    TITLE "0:"
    INDEX 01 00:59:30
  TRACK 49 AUDIO
    TITLE "13:cjc019_4375"
    INDEX 01 01:00:08
  TRACK 50 AUDIO
    TITLE "0:"
    INDEX 01 01:01:40
  TRACK 51 AUDIO
    TITLE "14:cjc019_4376"
    INDEX 01 01:02:18
  TRACK 52 AUDIO
    TITLE "0:"
    INDEX 01 01:04:60
  TRACK 53 AUDIO
    TITLE "13:cjc019_4377"
    INDEX 01 01:05:48
  TRACK 54 AUDIO
    TITLE "0:"
    INDEX 01 01:07:08
  TRACK 55 AUDIO
    TITLE "14:cjc019_4378"
    INDEX 01 01:07:59
  TRACK 56 AUDIO
    TITLE "0:"
    INDEX 01 01:10:53
  TRACK 57 AUDIO
    TITLE "13:cjc019_4379"
    INDEX 01 01:11:31
  TRACK 58 AUDIO
    TITLE "0:"
    INDEX 01 01:12:56
  TRACK 59 AUDIO
    TITLE "14:cjc019_4380"
    INDEX 01 01:13:40
  TRACK 60 AUDIO
    TITLE "0:"
    INDEX 01 01:15:62
  TRACK 61 AUDIO
    TITLE "13:cjc019_4381"
    INDEX 01 01:16:40
  TRACK 62 AUDIO
    TITLE "0:"
    INDEX 01 01:17:53
  TRACK 63 AUDIO
    TITLE "14:cjc019_4382"
    INDEX 01 01:18:35
  TRACK 64 AUDIO
    TITLE "0:"
    INDEX 01 01:20:69
  TRACK 65 AUDIO
    TITLE "13:cjc019_4383"
    INDEX 01 01:21:51
  TRACK 66 AUDIO
    TITLE "0:"
    INDEX 01 01:22:60
  TRACK 67 AUDIO
    TITLE "14:cjc019_4384"
    INDEX 01 01:23:48
  TRACK 68 AUDIO
    TITLE "0:"
    INDEX 01 01:25:04
  TRACK 69 AUDIO
    TITLE "13:cjc019_4385"
    INDEX 01 01:25:55
  TRACK 70 AUDIO
    TITLE "0:"
    INDEX 01 01:26:68
  TRACK 71 AUDIO
    TITLE "14:cjc019_4386"
    INDEX 01 01:27:53
  TRACK 72 AUDIO
    TITLE "0:"
    INDEX 01 01:30:44
